Coordinates
version=1
nRows=21
nColumns=22
inDegrees=yes

Units are S.I. units (second, meters, Newtons, ...)
If the header above contains a line with 'inDegrees', this indicates whether rotational values are in degrees (yes) or radians (no).

endheader
time	pelvis_tilt	pelvis_list	pelvis_rotation	pelvis_tx	pelvis_ty	pelvis_tz	hip_flexion_r	hip_adduction_r	hip_rotation_r	knee_angle_r	ankle_angle_r	subtalar_angle_r	hip_flexion_l	hip_adduction_l	hip_rotation_l	knee_angle_l	ankle_angle_l	subtalar_angle_l	lumbar_extension	lumbar_bending	lumbar_rotation
      2.71000000	     -0.26888223	     -0.27438339	    -37.53065201	     -0.52106334	      0.91485888	      0.01101304	     -0.38070932	      9.38944876	     10.87660748	    -20.03228234	     12.32145760	     -6.86011936	     20.85514137	    -11.94373580	     -8.60778160	    -23.59187360	      4.85395974	      1.68896573	     -7.77100931	      0.23888926	     -0.20305585
      2.72000000	     -0.56163810	     -0.25868244	    -38.27636204	     -0.51435105	      0.91325011	      0.01431564	     -0.61297800	      9.37098898	     11.40785935	    -20.17786991	     12.80971758	     -6.73240389	     20.88275422	    -11.91758066	     -8.68739134	    -20.14972171	      4.81549151	      2.74902766	     -7.51827429	      0.45820426	     -0.03013181
      2.73000000	     -0.85148832	     -0.23179466	    -38.99767159	     -0.50752714	      0.91153593	      0.01757610	     -0.83088793	      9.32484684	     11.86187841	    -20.34540114	     13.32159686	     -6.60111262	     20.91062945	    -11.84734176	     -8.75793982	    -16.84053293	      4.70890411	      4.07786174	     -7.26495644	      0.67602812	      0.10657304
      2.74000000	     -1.12140983	     -0.19417160	    -39.69830380	     -0.50060492	      0.90973459	      0.02082458	     -1.04396477	      9.24638602	     12.25477930	    -20.54803125	     13.85483909	     -6.46875752	     20.93669547	    -11.73357297	     -8.82419009	    -13.73187992	      4.55976233	      5.61242672	     -7.02559649	      0.87495663	      0.20331507
      2.75000000	     -1.35752285	     -0.14944404	    -40.38787104	     -0.49359309	      0.90787422	      0.02406936	     -1.25374882	      9.12804257	     12.56641867	    -20.80772391	     14.40352804	     -6.33776209	     20.96219132	    -11.58344513	     -8.88917605	    -10.90022407	      4.35121745	      7.27708902	     -6.81747061	      1.04897984	      0.27871074
      2.76000000	     -1.58254476	     -0.14978913	    -41.03321228	     -0.48649888	      0.90598904	      0.02733399	     -1.52909668	      9.03774929	     12.88996153	    -21.02511454	     14.94058052	     -6.20458848	     21.01734159	    -11.46063584	     -8.86751382	     -8.45840204	      4.12315110	      9.02299125	     -6.65765719	      1.25636690	      0.28795669
      2.77000000	     -1.74564673	     -0.12250804	    -41.68076638	     -0.47934033	      0.90409703	      0.03065261	     -1.80568728	      8.87463865	     13.14003553	    -21.30900750	     15.47218256	     -6.08152283	     21.09733646	    -11.29983217	     -8.85971548	     -6.46866504	      3.88975903	     10.61818094	     -6.53656334	      1.38802945	      0.29975987
      2.78000000	     -1.88215185	     -0.14998296	    -42.29690360	     -0.47215192	      0.90225743	      0.03404154	     -2.16115955	      8.74204176	     13.42172393	    -21.56499085	     15.98017619	     -5.96286952	     21.22999932	    -11.19826086	     -8.76450502	     -5.04842556	      3.69864923	     12.01426856	     -6.49039008	      1.53950992	      0.27622055
      2.79000000	     -1.97188104	     -0.20332134	    -42.89155680	     -0.46492454	      0.90050224	      0.03751825	     -2.57692305	      8.60092670	     13.71133307	    -21.82298561	     16.46053908	     -5.85440024	     21.42366396	    -11.12741897	     -8.61971972	     -4.24920618	      3.57863004	     13.05534817	     -6.51193792	      1.66516872	      0.23953152
      2.80000000	     -2.00872980	     -0.28044892	    -43.46627904	     -0.45764231	      0.89887254	      0.04109068	     -3.05809204	      8.44382211	     14.01455730	    -22.08043071	     16.90275971	     -5.75543742	     21.68291145	    -11.08137357	     -8.44022221	     -4.09916398	      3.52697651	     13.67964892	     -6.60273852	      1.75682917	      0.19499434
      2.81000000	     -2.01300531	     -0.37327466	    -43.97847494	     -0.45022713	      0.89737313	      0.04472947	     -3.59181582	      8.27939514	     14.30347599	    -22.31870746	     17.28013880	     -5.70311579	     22.02490136	    -11.04086047	     -8.13844637	     -4.55561851	      3.48903329	     13.76409030	     -6.72884605	      1.82965762	      0.08481865
      2.82000000	     -1.94334854	     -0.48734367	    -44.50490300	     -0.44269352	      0.89606853	      0.04854250	     -4.20549491	      8.07583780	     14.64251066	    -22.57015610	     17.58610612	     -5.60526999	     22.35726660	    -10.99895857	     -7.81534349	     -5.53353340	      3.52687218	     13.72718533	     -6.92083242	      1.84626223	      0.02874535
      2.83000000	     -1.83713357	     -0.60880667	    -44.99676945	     -0.43499101	      0.89493180	      0.05246012	     -4.86506249	      7.84874052	     14.98934292	    -22.81306695	     17.83638554	     -5.49530963	     22.70986784	    -10.93306678	     -7.38682778	     -6.93076739	      3.51186172	     13.35686582	     -7.13240616	      1.83273797	     -0.05355152
      2.84000000	     -1.70686978	     -0.69107147	    -45.46091892	     -0.42711601	      0.89395321	      0.05646894	     -5.51359099	      7.56815157	     15.32985344	    -23.06264874	     17.96092422	     -5.33163610	     23.07260109	    -10.79685951	     -6.82371402	     -8.58487401	      3.32572888	     12.45682136	     -7.30837473	      1.76036133	     -0.13969176
      2.85000000	     -1.54889884	     -0.75348121	    -45.89436906	     -0.41904040	      0.89312784	      0.06055709	     -6.16930584	      7.24132670	     15.64677150	    -23.31540315	     18.05162242	     -5.17720419	     23.40652946	    -10.58932323	     -6.11398634	    -10.39495533	      3.06422000	     11.59069773	     -7.46645771	      1.64964111	     -0.23500985
      2.86000000	     -1.37422552	     -0.76000757	    -46.31351518	     -0.41083051	      0.89245131	      0.06471296	     -6.76916977	      6.85564458	     15.96227929	    -23.61550591	     18.04104535	     -4.97778075	     23.70964958	    -10.28706844	     -5.28658903	    -12.22821183	      2.62950918	     10.61706679	     -7.57132581	      1.47786027	     -0.35611611
      2.87000000	     -1.19898716	     -0.73396323	    -46.70818537	     -0.40251869	      0.89193717	      0.06891709	     -7.30684410	      6.44526809	     16.25453497	    -23.97522863	     17.91809110	     -4.74490093	     23.97182513	     -9.91318906	     -4.32804208	    -14.01349819	      2.04986958	      9.71059209	     -7.63642467	      1.27735530	     -0.51105266
      2.88000000	     -1.02598960	     -0.62067503	    -47.11780602	     -0.39403765	      0.89155675	      0.07326515	     -7.77188568	      5.95258082	     16.54782694	    -24.33024411	     17.68123172	     -4.41929750	     24.23452950	     -9.45852801	     -3.42533144	    -15.75308586	      1.47604207	      8.79048273	     -7.59085682	      1.00824466	     -0.60476168
      2.89000000	     -0.86337606	     -0.48915572	    -47.51317863	     -0.38549288	      0.89135871	      0.07771417	     -8.16400487	      5.46210618	     16.82434651	    -24.76579877	     17.30470732	     -4.02742306	     24.46243581	     -8.97997109	     -2.52821438	    -17.40928063	      0.89984178	      8.00368009	     -7.50911895	      0.72885256	     -0.73921940
      2.90000000	     -0.70886387	     -0.33420592	    -47.90980344	     -0.37684331	      0.89135993	      0.08230822	     -8.48713527	      4.96141803	     17.07887546	    -25.26805080	     16.75688803	     -3.55454746	     24.65716289	     -8.49362967	     -1.74189243	    -18.99002834	      0.38317973	      7.32492296	     -7.38185351	      0.43717726	     -0.86446746
      2.91000000	     -0.55546945	     -0.16915999	    -48.31878849	     -0.36810340	      0.89157135	      0.08708734	     -8.73949399	      4.46348619	     17.30965249	    -25.87130237	     16.01226338	     -2.97672113	     24.79411286	     -8.02199618	     -1.11548758	    -20.48223692	     -0.00758664	      6.71499108	     -7.22139390	      0.13706231	     -0.97339000
